# ProBuilder 4.2.3
# https://unity3d.com/unity/features/worldbuilding/probuilder
# 03/11/2020 16:28:13

mtllib ./Roof.mtl
o Roof

g Roof
v -1.195893 -0.002836407 -2.514346E-08
v -1.181182 -0.002836407 0.1399595
v -1.195893 0.03186258 -2.514346E-08
v -1.181182 0.03186258 0.1399595
v -1.137694 -0.002836407 0.273802
v -1.137694 0.03186258 0.273802
v -1.06733 -0.002836407 0.395678
v -1.06733 0.03186258 0.395678
v -0.9731624 -0.002836407 0.5002612
v -0.9731624 0.03186258 0.5002612
v -0.859309 -0.002836407 0.5829802
v -0.859309 0.03186258 0.5829802
v -0.7307456 -0.002836407 0.6402206
v -0.7307456 0.03186258 0.6402206
v -0.5930903 -0.002836407 0.66948
v -0.5930903 0.03186258 0.66948
v 0.9016203 -0.002836407 0.6694801
v 0.9016203 0.03186265 0.6694801
v 1.039275 -0.002836407 0.6402206
v 1.039275 0.03186265 0.6402206
v 1.167839 -0.002836407 0.5829804
v 1.167839 0.03186265 0.5829804
v 1.281692 -0.002836407 0.5002611
v 1.281692 0.03186265 0.5002611
v 1.375859 -0.002836407 0.395678
v 1.375859 0.03186265 0.395678
v 1.446225 -0.002836407 0.273802
v 1.446225 0.03186265 0.273802
v 1.489712 -0.002836407 0.1399594
v 1.489712 0.03186265 0.1399594
v 1.504422 -0.002836407 -7.413124E-08
v 1.504422 0.03186265 -7.413124E-08
v 1.489712 -0.002836407 -0.1399594
v 1.489712 0.03186265 -0.1399594
v 1.446224 -0.002836407 -0.2738017
v 1.446224 0.03186265 -0.2738017
v 1.375859 -0.002836407 -0.3956779
v 1.375859 0.03186265 -0.3956779
v 1.281692 -0.002836407 -0.500261
v 1.281692 0.03186265 -0.500261
v 1.167839 -0.002836407 -0.5829803
v 1.167839 0.03186265 -0.5829803
v 1.039275 -0.002836407 -0.6402203
v 1.039275 0.03186265 -0.6402203
v 0.9016203 -0.002836407 -0.66948
v 0.9016203 0.03186265 -0.66948
v -0.5930902 -0.002836407 -0.6694797
v -0.5930902 0.03186258 -0.6694797
v -0.7307456 -0.002836407 -0.6402203
v -0.7307456 0.03186258 -0.6402203
v -0.859309 -0.002836407 -0.5829803
v -0.859309 0.03186258 -0.5829803
v -0.9731626 -0.002836407 -0.5002608
v -0.9731626 0.03186258 -0.5002608
v -1.067329 -0.002836407 -0.395678
v -1.067329 0.03186258 -0.395678
v -1.137695 -0.002836407 -0.2738017
v -1.137695 0.03186258 -0.2738017
v -1.181183 -0.002836407 -0.1399593
v -1.181183 0.03186258 -0.1399593
v -2.03147 3.08839E-09 1.922231E-10
v -2.005903 3.08839E-09 0.2432566
v -1.930318 3.08839E-09 0.4758818
v -1.80802 3.08839E-09 0.6877087
v -1.644353 3.08839E-09 0.8694794
v -1.44647 3.08839E-09 1.01325
v -1.22302 3.08839E-09 1.112736
v -0.9837685 3.08839E-09 1.163591
v 1.292298 0 1.163591
v 1.53155 0 1.112736
v 1.755 0 1.01325
v 1.952883 0 0.8694794
v 2.11655 0 0.6877086
v 2.238848 0 0.4758818
v 2.314433 0 0.2432566
v 2.34 0 -1.022846E-07
v 2.314433 0 -0.2432568
v 2.238848 0 -0.4758817
v 2.11655 0 -0.6877086
v 1.952883 0 -0.8694793
v 1.755 0 -1.01325
v 1.53155 0 -1.112736
v 1.292298 0 -1.163591
v -0.9837685 3.08839E-09 -1.163591
v -1.22302 3.08839E-09 -1.112736
v -1.44647 3.08839E-09 -1.01325
v -1.644353 3.08839E-09 -0.8694792
v -1.80802 3.08839E-09 -0.6877087
v -1.930319 3.08839E-09 -0.4758816
v -2.005903 3.08839E-09 -0.2432567

vt 0.1250066 -0.002836407
vt -0.01572382 -0.002836407
vt 0.1250066 0.03186258
vt -0.01572382 0.03186258
vt 0.2318966 -0.002836407
vt 0.09116619 -0.002836407
vt 0.2318966 0.03186258
vt 0.09116619 0.03186258
vt 0.3317221 -0.002836407
vt 0.1909922 -0.002836407
vt 0.3317221 0.03186258
vt 0.1909922 0.03186258
vt 0.4201392 -0.002836407
vt 0.2794083 -0.002836407
vt 0.4201392 0.03186258
vt 0.2794083 0.03186258
vt 0.4932608 -0.002836407
vt 0.3525304 -0.002836407
vt 0.4932608 0.03186258
vt 0.3525304 0.03186258
vt 0.5478967 -0.002836407
vt 0.4071665 -0.002836407
vt 0.5478967 0.03186258
vt 0.4071665 0.03186258
vt 0.5816686 -0.002836407
vt 0.440938 -0.002836407
vt 0.5816686 0.03186258
vt 0.440938 0.03186258
vt 0.5930902 -0.002836407
vt -0.9016203 -0.002836407
vt 0.5930902 0.03186258
vt -0.9016203 0.03186265
vt -0.7427248 -0.002836407
vt -0.8834552 -0.002836407
vt -0.7427248 0.03186265
vt -0.8834552 0.03186265
vt -0.6890232 -0.002836407
vt -0.8297534 -0.002836407
vt -0.6890232 0.03186265
vt -0.8297534 0.03186265
vt -0.6021333 -0.002836407
vt -0.6021333 0.03186265
vt -0.4858553 -0.002836407
vt -0.6265858 -0.002836407
vt -0.4858553 0.03186265
vt -0.6265858 0.03186265
vt -0.3452658 -0.002836407
vt -0.3452658 0.03186265
vt -0.1864981 -0.002836407
vt -0.3272282 -0.002836407
vt -0.1864981 0.03186265
vt -0.3272282 0.03186265
vt -0.01652427 -0.002836407
vt -0.1572547 -0.002836407
vt -0.01652427 0.03186265
vt -0.1572547 0.03186265
vt 0.157251 -0.002836407
vt 0.01652083 -0.002836407
vt 0.157251 0.03186265
vt 0.01652083 0.03186265
vt 0.3272385 -0.002836407
vt 0.1865083 -0.002836407
vt 0.3272385 0.03186265
vt 0.1865083 0.03186265
vt 0.4859924 -0.002836407
vt 0.3452619 -0.002836407
vt 0.4859924 0.03186265
vt 0.3452619 0.03186265
vt 0.626583 -0.002836407
vt 0.626583 0.03186265
vt 0.7428644 -0.002836407
vt 0.6021339 -0.002836407
vt 0.7428644 0.03186265
vt 0.6021339 0.03186265
vt 0.8297549 -0.002836407
vt 0.6890248 -0.002836407
vt 0.8297549 0.03186265
vt 0.6890248 0.03186265
vt 0.883454 -0.002836407
vt 0.883454 0.03186265
vt 0.9016204 -0.002836407
vt -0.5930901 -0.002836407
vt 0.9016204 0.03186265
vt -0.5930901 0.03186258
vt -0.440938 -0.002836407
vt -0.5816686 -0.002836407
vt -0.440938 0.03186258
vt -0.5816686 0.03186258
vt -0.4071686 -0.002836407
vt -0.5478988 -0.002836407
vt -0.4071686 0.03186258
vt -0.5478988 0.03186258
vt -0.3525282 -0.002836407
vt -0.493259 -0.002836407
vt -0.3525282 0.03186258
vt -0.493259 0.03186258
vt -0.2794059 -0.002836407
vt -0.4201358 -0.002836407
vt -0.2794059 0.03186258
vt -0.4201358 0.03186258
vt -0.1909978 -0.002836407
vt -0.3317286 -0.002836407
vt -0.1909978 0.03186258
vt -0.3317286 0.03186258
vt -0.09116805 -0.002836407
vt -0.2318983 -0.002836407
vt -0.09116805 0.03186258
vt -0.2318983 0.03186258
vt 0.01572739 -0.002836407
vt -0.1250028 -0.002836407
vt 0.01572739 0.03186258
vt -0.1250028 0.03186258
vt -2.031458 -2.46012E-06
vt -2.005891 0.2432542
vt -1.195876 -2.485455E-06
vt -1.181166 0.139957
vt -1.930308 0.4758747
vt -1.137679 0.2737948
vt -1.808011 0.6876975
vt -1.067316 0.3956663
vt -1.644346 0.8694648
vt -0.9731504 0.5002454
vt -1.446466 1.013233
vt -0.8592996 0.5829608
vt -1.223018 1.112718
vt -0.7307392 0.6401981
vt -0.9837679 1.163571
vt -0.593087 0.6694549
vt 1.292298 1.163571
vt 0.9016203 0.6694528
vt 1.531549 1.112715
vt 1.039272 0.6401936
vt 1.754997 1.013228
vt 1.167832 0.5829551
vt 1.952877 0.8694591
vt 1.281681 0.5002387
vt 2.116542 0.6876912
vt 1.375846 0.3956596
vt 2.238837 0.4758684
vt 1.446209 0.2737883
vt 2.31442 0.2432482
vt 1.489694 0.139951
vt 2.339986 -2.936248E-06
vt 1.504404 -2.908095E-06
vt 2.314419 -0.243254
vt 1.489694 -0.1399565
vt 2.238836 -0.4758735
vt 1.446207 -0.2737934
vt 2.11654 -0.6876956
vt 1.375843 -0.3956644
vt 1.952875 -0.8694624
vt 1.281679 -0.5002429
vt 1.754995 -1.01323
vt 1.167828 -0.5829585
vt 1.531547 -1.112715
vt 1.039268 -0.6401955
vt 1.292297 -1.16357
vt 0.9016169 -0.6694534
vt -0.9837685 -1.163571
vt -0.5930902 -0.6694524
vt -1.223019 -1.112716
vt -0.7307422 -0.6401949
vt -1.446468 -1.01323
vt -0.8593024 -0.5829573
vt -1.644348 -0.8694614
vt -0.9731529 -0.5002409
vt -1.808013 -0.6876935
vt -1.067317 -0.3956619
vt -1.930309 -0.47587
vt -1.13768 -0.2737897
vt -2.005892 -0.2432495
vt -1.181167 -0.139952

vn 0.9945218 0 -0.1045299
vn 0.9510564 0 -0.3090174
vn 0.8660279 0 -0.4999957
vn 0.7431434 0 -0.6691321
vn 0.5877836 0 -0.8090183
vn 0.4067383 0 -0.9135447
vn 0.2079106 0 -0.9781479
vn 1.196311E-07 0 -1
vn -0.2079118 0 -0.9781476
vn -0.4067374 0 -0.9135451
vn -0.5877858 0 -0.8090166
vn -0.7431436 0 -0.669132
vn -0.8660242 0 -0.5000021
vn -0.9510584 0 -0.3090113
vn -0.9945219 0 -0.1045283
vn -0.9945222 0 0.1045259
vn -0.9510562 0 0.3090178
vn -0.8660256 0 0.4999997
vn -0.743145 0 0.6691304
vn -0.5877854 0 0.8090169
vn -0.406736 0 0.9135457
vn -0.2079132 0 0.9781473
vn 1.993852E-07 0 1
vn 0.2079106 0 0.9781479
vn 0.4067362 0 0.9135457
vn 0.5877855 0 0.8090169
vn 0.7431453 0 0.6691301
vn 0.8660252 0 0.5000004
vn 0.9510559 0 0.3090186
vn 0.9945221 0 0.1045268
vn -0.003394532 -0.9999942 0.0003567796
vn -0.003304726 -0.999994 0.001073773
vn -0.003119332 -0.9999935 0.001800943
vn -0.002826114 -0.9999928 0.002544646
vn -0.002404989 -0.9999917 0.003310185
vn -0.001825728 -0.9999899 0.004100651
vn -0.001044595 -0.9999874 0.004914435
vn -1.356876E-09 -0.9999835 0.00574034
vn 0.001044594 -0.9999874 0.00491443
vn 0.001825727 -0.9999899 0.004100648
vn 0.002404986 -0.9999917 0.00331018
vn 0.002826109 -0.9999928 0.002544641
vn 0.003119329 -0.9999935 0.001800945
vn 0.003304725 -0.999994 0.001073769
vn 0.003394527 -0.9999942 0.0003567789
vn 0.003304723 -0.999994 -0.001073769
vn 0.003119327 -0.9999935 -0.001800944
vn 0.002826109 -0.9999928 -0.002544641
vn 0.002404987 -0.9999917 -0.003310178
vn 0.001825724 -0.9999899 -0.004100648
vn 0.001044594 -0.9999874 -0.004914428
vn -1.356876E-09 -0.9999835 -0.005740337
vn -0.001044596 -0.9999874 -0.004914431
vn -0.001825726 -0.9999899 -0.004100652
vn -0.002404989 -0.9999917 -0.003310183
vn -0.002826113 -0.9999928 -0.002544644
vn -0.00311933 -0.9999935 -0.001800947
vn -0.003304727 -0.999994 -0.001073768

usemtl White
f 1/115/31 2/116/31 62/114/31 61/113/31
f 2/116/32 5/118/32 63/117/32 62/114/32
f 5/118/33 7/120/33 64/119/33 63/117/33
f 7/120/34 9/122/34 65/121/34 64/119/34
f 9/122/35 11/124/35 66/123/35 65/121/35
f 11/124/36 13/126/36 67/125/36 66/123/36
f 13/126/37 15/128/37 68/127/37 67/125/37
f 15/128/38 17/130/38 69/129/38 68/127/38
f 17/130/39 19/132/39 70/131/39 69/129/39
f 19/132/40 21/134/40 71/133/40 70/131/40
f 21/134/41 23/136/41 72/135/41 71/133/41
f 23/136/42 25/138/42 73/137/42 72/135/42
f 25/138/43 27/140/43 74/139/43 73/137/43
f 27/140/44 29/142/44 75/141/44 74/139/44
f 29/142/45 31/144/45 76/143/45 75/141/45
f 31/144/45 33/146/45 77/145/45 76/143/45
f 33/146/46 35/148/46 78/147/46 77/145/46
f 35/148/47 37/150/47 79/149/47 78/147/47
f 37/150/48 39/152/48 80/151/48 79/149/48
f 39/152/49 41/154/49 81/153/49 80/151/49
f 41/154/50 43/156/50 82/155/50 81/153/50
f 43/156/51 45/158/51 83/157/51 82/155/51
f 45/158/52 47/160/52 84/159/52 83/157/52
f 47/160/53 49/162/53 85/161/53 84/159/53
f 49/162/54 51/164/54 86/163/54 85/161/54
f 51/164/55 53/166/55 87/165/55 86/163/55
f 53/166/56 55/168/56 88/167/56 87/165/56
f 55/168/57 57/170/57 89/169/57 88/167/57
f 57/170/58 59/172/58 90/171/58 89/169/58
f 59/172/31 1/115/31 61/113/31 90/171/31

usemtl EmissiveWhiteLight
f 3/3/1 4/4/1 2/2/1 1/1/1
f 4/7/2 6/8/2 5/6/2 2/5/2
f 6/11/3 8/12/3 7/10/3 5/9/3
f 8/15/4 10/16/4 9/14/4 7/13/4
f 10/19/5 12/20/5 11/18/5 9/17/5
f 12/23/6 14/24/6 13/22/6 11/21/6
f 14/27/7 16/28/7 15/26/7 13/25/7
f 16/31/8 18/32/8 17/30/8 15/29/8
f 18/35/9 20/36/9 19/34/9 17/33/9
f 20/39/10 22/40/10 21/38/10 19/37/10
f 22/42/11 24/35/11 23/33/11 21/41/11
f 24/45/12 26/46/12 25/44/12 23/43/12
f 26/48/13 28/45/13 27/43/13 25/47/13
f 28/51/14 30/52/14 29/50/14 27/49/14
f 30/55/15 32/56/15 31/54/15 29/53/15
f 32/59/16 34/60/16 33/58/16 31/57/16
f 34/63/17 36/64/17 35/62/17 33/61/17
f 36/67/18 38/68/18 37/66/18 35/65/18
f 38/70/19 40/67/19 39/65/19 37/69/19
f 40/73/20 42/74/20 41/72/20 39/71/20
f 42/77/21 44/78/21 43/76/21 41/75/21
f 44/80/22 46/73/22 45/71/22 43/79/22
f 46/83/23 48/84/23 47/82/23 45/81/23
f 48/87/24 50/88/24 49/86/24 47/85/24
f 50/91/25 52/92/25 51/90/25 49/89/25
f 52/95/26 54/96/26 53/94/26 51/93/26
f 54/99/27 56/100/27 55/98/27 53/97/27
f 56/103/28 58/104/28 57/102/28 55/101/28
f 58/107/29 60/108/29 59/106/29 57/105/29
f 60/111/30 3/112/30 1/110/30 59/109/30

