# ProBuilder 4.2.3
# https://unity3d.com/unity/features/worldbuilding/probuilder
# 07/11/2020 14:51:12

mtllib ./Room.mtl
o Room

g Room
v -6.544222 9.313226E-09 0
v -6.544222 3 0
v -6.353404 9.313226E-09 1.204781
v -6.353404 3 1.204781
v -5.792436 9.313226E-09 2.305742
v -5.792436 3 2.305742
v 7.185329 9.313226E-09 2.305742
v 7.185329 3 2.305742
v 7.746297 9.313226E-09 1.204781
v 7.746297 3 1.204781
v 7.937116 9.313226E-09 -2.384186E-07
v 7.937116 3 -2.384186E-07
v 7.746297 9.313226E-09 -1.204781
v 7.746297 3 -1.204781
v 7.185329 9.313226E-09 -2.305742
v 7.185329 3 -2.305742
v -5.792436 9.313226E-09 -2.305742
v -5.792436 3 -2.305742
v -6.353404 9.313226E-09 -1.204781
v -6.353404 3 -1.204781
v -6.626567 0 0
v 4 0 0
v -6.430793 0 1.236068
v -6.626567 3 0
v 4 3 0
v -6.430793 3 1.236068
v -5.862635 0 2.351141
v -5.862635 3 2.351141
v -4.977708 0 3.236068
v -4.977708 3 3.236068
v -3.862635 9.313226E-09 3.77529
v -3.862635 3 3.77529
v 4 9.313226E-09 3.971064
v 4 3 3.971064
v 5.236068 0 3.804226
v 5.236068 3 3.804226
v 6.351141 0 3.236068
v 6.351141 3 3.236068
v 7.236068 0 2.351141
v 7.236068 3 2.351141
v 7.804226 0 1.236068
v 7.804226 3 1.236068
v 8 0 -3.496911E-07
v 8 3 -3.496911E-07
v 7.804226 0 -1.236068
v 7.804226 3 -1.236068
v 7.236068 0 -2.35114
v 7.236068 3 -2.35114
v 6.351142 0 -3.236067
v 6.351142 3 -3.236067
v 5.236068 0 -3.804226
v 5.236068 3 -3.804226
v 4 0 -4
v 4 3 -4
v -3.862635 0 -3.804226
v -3.862635 3 -3.804226
v -4.977707 0 -3.236068
v -4.977707 3 -3.236068
v -5.862635 0 -2.351141
v -5.862635 3 -2.351141
v -6.430793 0 -1.236068
v -6.430793 3 -1.236068

vt 1.02374 9.313226E-09
vt 1.02374 3
vt -0.1960587 9.313226E-09
vt -0.1960587 3
vt 1.810919 9.313226E-09
vt 1.810919 3
vt 0.5752817 9.313226E-09
vt 0.5752817 3
vt -1.20764 9.313226E-09
vt -1.20764 3
vt -2.443277 9.313226E-09
vt -2.443277 3
vt -0.02184024 9.313226E-09
vt -0.02184024 3
vt -1.24164 9.313226E-09
vt -1.24164 3
vt 1.24164 9.313226E-09
vt 1.24164 3
vt 0.02184117 9.313226E-09
vt 0.02184117 3
vt 2.443278 9.313226E-09
vt 2.443278 3
vt 1.207641 9.313226E-09
vt 1.207641 3
vt -0.5752817 9.313226E-09
vt -0.5752817 3
vt -1.81092 9.313226E-09
vt -1.81092 3
vt 0.1960578 9.313226E-09
vt 0.1960578 3
vt -1.023741 9.313226E-09
vt -1.023741 3
vt 6.626567 0
vt -4 0
vt 6.430793 1.236068
vt -6.626567 0
vt 4 0
vt -6.430793 1.236068
vt 5.862635 2.351141
vt -5.862635 2.351141
vt 4.977708 3.236068
vt -4.977708 3.236068
vt 3.862635 3.77529
vt -3.862635 3.77529
vt -4 3.971064
vt 4 3.971064
vt -5.236068 3.804226
vt 5.236068 3.804226
vt -6.351141 3.236068
vt 6.351141 3.236068
vt -7.236068 2.351141
vt 7.236068 2.351141
vt -7.804226 1.236068
vt 7.804226 1.236068
vt -8 -3.496911E-07
vt 8 -3.496911E-07
vt -7.804226 -1.236068
vt 7.804226 -1.236068
vt -7.236068 -2.35114
vt 7.236068 -2.35114
vt -6.351142 -3.236067
vt 6.351142 -3.236067
vt -5.236068 -3.804226
vt 5.236068 -3.804226
vt -4 -4
vt 4 -4
vt 3.862635 -3.804226
vt -3.862635 -3.804226
vt 4.977707 -3.236068
vt -4.977707 -3.236068
vt 5.862635 -2.351141
vt -5.862635 -2.351141
vt 6.430793 -1.236068
vt -6.430793 -1.236068
vt -6.199645 0
vt -6.199645 3
vt -6.116045 9.313226E-09
vt -6.116045 3
vt 5.792436 2.305742
vt 6.353404 1.204781
vt 6.544222 0
vt -6.353404 1.204781
vt -5.792436 2.305742
vt 6.353404 -1.204781
vt -6.544222 -1.342552E-14
vt 5.792436 -2.305742
vt -6.353404 -1.204781
vt 6.199645 3
vt 6.199645 0
vt 6.116045 3
vt 6.116045 9.313226E-09
vt -5.792436 -2.305742
vt 7.746297 1.204781
vt 7.937116 -2.384186E-07
vt -7.746297 1.204781
vt -7.185329 2.305742
vt 6.960318 3
vt 6.960318 0
vt 6.892233 3
vt 6.892233 9.313226E-09
vt 7.185329 2.305742
vt 7.746297 -1.204781
vt -7.937116 -2.384186E-07
vt 7.185329 -2.305742
vt -7.746297 -1.204781
vt -6.96031 0
vt -6.96031 3
vt -6.892225 9.313226E-09
vt -6.892225 3
vt -7.185329 -2.305742

vn 1 0 3.017381E-08
vn 0.9510565 0 -0.309017
vn 0.8910064 0 -0.4539908
vn -0.8910065 0 -0.4539905
vn -0.9510565 0 -0.309017
vn -1 0 4.526072E-08
vn -0.9510565 0 0.3090171
vn -0.8910065 0 0.4539905
vn 0.8910064 0 0.4539908
vn 0.9510565 0 0.3090171
vn 0 1 0
vn 0 -1 0
vn 0.5430495 0 0.8397008
vn 0.5430495 0 -0.8397008
vn -0.6668016 0 0.7452353
vn -0.6668036 0 -0.7452335

usemtl BlueGray
f 1/1/1 2/2/1 4/4/2 3/3/2
f 3/5/2 4/6/2 6/8/3 5/7/3
f 7/9/4 8/10/4 10/12/5 9/11/5
f 9/13/5 10/14/5 12/16/6 11/15/6
f 11/17/6 12/18/6 14/20/7 13/19/7
f 13/21/7 14/22/7 16/24/8 15/23/8
f 17/25/9 18/26/9 20/28/10 19/27/10
f 19/29/10 20/30/10 2/32/1 1/31/1
f 6/79/11 4/80/11 26/35/11 28/39/11
f 4/80/11 2/81/11 24/33/11 26/35/11
f 3/82/12 5/83/12 27/40/12 23/38/12
f 2/81/11 20/84/11 62/73/11 24/33/11
f 1/85/12 3/82/12 23/38/12 21/36/12
f 20/84/11 18/86/11 60/71/11 62/73/11
f 19/87/12 1/85/12 21/36/12 61/74/12
f 17/92/12 19/87/12 61/74/12 59/72/12
f 9/93/12 11/94/12 43/56/12 41/54/12
f 10/95/11 8/96/11 40/51/11 42/53/11
f 7/101/12 9/93/12 41/54/12 39/52/12
f 11/94/12 13/102/12 45/58/12 43/56/12
f 12/103/11 10/95/11 42/53/11 44/55/11
f 13/102/12 15/104/12 47/60/12 45/58/12
f 14/105/11 12/103/11 44/55/11 46/57/11
f 16/110/11 14/105/11 46/57/11 48/59/11

usemtl Floor
f 23/35/11 22/34/11 21/33/11
f 27/39/11 22/34/11 23/35/11
f 29/41/11 22/34/11 27/39/11
f 31/43/11 22/34/11 29/41/11
f 33/45/11 22/34/11 31/43/11
f 35/47/11 22/34/11 33/45/11
f 37/49/11 22/34/11 35/47/11
f 39/51/11 22/34/11 37/49/11
f 41/53/11 22/34/11 39/51/11
f 43/55/11 22/34/11 41/53/11
f 45/57/11 22/34/11 43/55/11
f 47/59/11 22/34/11 45/57/11
f 49/61/11 22/34/11 47/59/11
f 51/63/11 22/34/11 49/61/11
f 53/65/11 22/34/11 51/63/11
f 55/67/11 22/34/11 53/65/11
f 57/69/11 22/34/11 55/67/11
f 59/71/11 22/34/11 57/69/11
f 61/73/11 22/34/11 59/71/11
f 21/33/11 22/34/11 61/73/11

usemtl BlueGray
f 24/36/12 25/37/12 26/38/12
f 26/38/12 25/37/12 28/40/12
f 28/40/12 25/37/12 30/42/12
f 30/42/12 25/37/12 32/44/12
f 32/44/12 25/37/12 34/46/12
f 34/46/12 25/37/12 36/48/12
f 36/48/12 25/37/12 38/50/12
f 38/50/12 25/37/12 40/52/12
f 40/52/12 25/37/12 42/54/12
f 42/54/12 25/37/12 44/56/12
f 44/56/12 25/37/12 46/58/12
f 46/58/12 25/37/12 48/60/12
f 48/60/12 25/37/12 50/62/12
f 50/62/12 25/37/12 52/64/12
f 52/64/12 25/37/12 54/66/12
f 54/66/12 25/37/12 56/68/12
f 56/68/12 25/37/12 58/70/12
f 58/70/12 25/37/12 60/72/12
f 60/72/12 25/37/12 62/74/12
f 62/74/12 25/37/12 24/36/12

usemtl EmissiveWhiteLight
f 5/77/13 6/78/13 28/76/13 27/75/13
f 18/90/14 17/91/14 59/89/14 60/88/14
f 8/99/15 7/100/15 39/98/15 40/97/15
f 15/108/16 16/109/16 48/107/16 47/106/16

