# ProBuilder 4.2.3
# https://unity3d.com/unity/features/worldbuilding/probuilder
# 07/11/2020 14:51:20

mtllib ./Room2.mtl
o Room2

g Room2
v -5.862635 0 2.351141
v -5.862635 3 2.351141
v -4.977708 0 3.236068
v -4.977708 3 3.236068
v -3.862635 9.313226E-09 3.77529
v -3.862635 3 3.77529
v 4 9.313226E-09 3.971064
v 4 3 3.971064
v 5.236068 0 3.804226
v 5.236068 3 3.804226
v 6.351141 0 3.236068
v 6.351141 3 3.236068
v 7.236068 0 2.351141
v 7.236068 3 2.351141
v 7.236068 0 -2.35114
v 7.236068 3 -2.35114
v 6.351142 0 -3.236067
v 6.351142 3 -3.236067
v 5.236068 0 -3.804226
v 5.236068 3 -3.804226
v 4 0 -4
v 4 3 -4
v -3.862635 0 -3.804226
v -3.862635 3 -3.804226
v -4.977707 0 -3.236068
v -4.977707 3 -3.236068
v -5.862635 0 -2.351141
v -5.862635 3 -2.351141

vt 2.483001 0
vt 2.483001 3
vt 1.231525 0
vt 1.231525 3
vt 3.072442 0
vt 3.072442 3
vt 1.833834 9.313226E-09
vt 1.833834 3
vt 3.767466 9.313226E-09
vt 3.767466 3
vt -4.097607 9.313226E-09
vt -4.097607 3
vt -3.432878 9.313226E-09
vt -3.432878 3
vt -4.680155 0
vt -4.680155 3
vt -2.938288 0
vt -2.938288 3
vt -4.189764 0
vt -4.189764 3
vt -2.202689 0
vt -2.202689 3
vt -3.454165 0
vt -3.454165 3
vt 3.454164 0
vt 3.454164 3
vt 2.202689 0
vt 2.202689 3
vt 4.189764 0
vt 4.189764 3
vt 2.938288 0
vt 2.938288 3
vt 4.576491 0
vt 4.576491 3
vt 3.325015 0
vt 3.325015 3
vt 4.098327 0
vt 4.098327 3
vt -3.766745 0
vt -3.766745 3
vt -1.714552 0
vt -1.714552 3
vt -2.966027 0
vt -2.966027 3
vt -1.231525 0
vt -1.231525 3
vt -2.483001 0
vt -2.483001 3

vn 0.7071069 0 -0.7071067
vn 0.579333 0 -0.815091
vn 0.2354272 0 -0.971892
vn -0.05460764 0 -0.9985079
vn -0.2980998 0 -0.9545347
vn -0.5877852 0 -0.809017
vn -0.7071068 0 -0.7071068
vn -0.7071069 0 0.7071066
vn -0.5877854 0 0.8090169
vn -0.3090171 0 0.9510565
vn -0.06604467 0 0.9978166
vn 0.2455301 0 0.969389
vn 0.5877852 0 0.8090171
vn 0.7071068 0 0.7071068

usemtl BlueGray
f 1/1/1 2/2/1 4/4/2 3/3/2
f 3/5/2 4/6/2 6/8/3 5/7/3
f 5/9/3 6/10/3 8/12/4 7/11/4
f 7/13/4 8/14/4 10/16/5 9/15/5
f 9/17/5 10/18/5 12/20/6 11/19/6
f 11/21/6 12/22/6 14/24/7 13/23/7
f 15/25/8 16/26/8 18/28/9 17/27/9
f 17/29/9 18/30/9 20/32/10 19/31/10
f 19/33/10 20/34/10 22/36/11 21/35/11
f 21/37/11 22/38/11 24/40/12 23/39/12
f 23/41/12 24/42/12 26/44/13 25/43/13
f 25/45/13 26/46/13 28/48/14 27/47/14

usemtl Floor

usemtl BlueGray

usemtl EmissiveWhiteLight

