# ProBuilder 4.2.3
# https://unity3d.com/unity/features/worldbuilding/probuilder
# 03/11/2020 16:28:49

mtllib ./Table.mtl
o Table

g Table
v 0.4798126 0.1057441 0.9729478
v -0.07771039 0.1057441 0.0002310276
v 0.4999999 0.2 0.9630859
v -0.05200291 0.2 0
v 0.6393402 0.1057441 0.0001881123
v 0.7953873 0.1057441 0.3356473
v 0.573437 0.2 0
v 0.7350001 0.2 0.3473172
v 4.519813 0.1057441 0.9729478
v 4.5 0.2 0.9630859
v 4.204865 0.1057441 0.3356473
v 4.265 0.2 0.3473172
v 5.115196 0.1057441 0.0002310276
v 5.089489 0.2 0
v 4.368053 0.1057441 0.0001881123
v 4.433957 0.2 0
v 4.519813 0.1057441 -1.019164
v 4.5 0.2 -1.009302
v 4.204865 0.1057441 -0.3246243
v 4.265 0.2 -0.3362942
v 0.4798126 0.1057441 -1.019164
v 0.5000001 0.2 -1.009302
v 0.7953873 0.1057441 -0.3246243
v 0.7350001 0.2 -0.3362942
v -0.05200291 0.008231163 0
v 0.5 0.008231163 0.9630859
v 0.573437 0.008231163 0
v 0.7350001 0.008231163 0.3473172
v 4.5 0.008231163 0.9630859
v 4.265 0.008231163 0.3473172
v 5.089489 0.008231163 0
v 4.433957 0.008231163 0
v 4.5 0.008231163 -1.009302
v 4.265 0.008231163 -0.3362942
v 0.5 0.008231163 -1.009302
v 0.7350001 0.008231163 -0.3362942

vt 1.082722 0.087247
vt -0.03844272 0.08724701
vt 1.084204 0.1841323
vt -0.02585956 0.1841324
vt -0.2698277 -0.2207035
vt -0.6398056 -0.2207035
vt -0.2418609 -0.109145
vt -0.6249169 -0.109145
vt 4.519813 0.003923692
vt 0.4798126 0.003923692
vt 4.5 0.09869414
vt 0.4999999 0.09869414
vt -0.7953873 0.1461846
vt -4.204865 0.1461846
vt -0.7350001 0.2411602
vt -4.265 0.2411602
vt 2.670209 -0.8907316
vt 1.529745 -0.8907316
vt 2.656986 -0.7939315
vt 1.527813 -0.7939315
vt -1.537579 2.178267
vt -1.910625 2.178267
vt -1.553391 2.289562
vt -1.939623 2.289562
vt -1.399451 -0.9045429
vt -2.579979 -0.9045429
vt -1.397974 -0.8077349
vt -2.566814 -0.8077348
vt 1.961133 2.159857
vt 1.597631 2.159857
vt 1.990551 2.271042
vt 1.6142 2.271042
vt -0.4798126 -0.0008856363
vt -4.519813 -0.0008856363
vt -0.5000001 0.0938848
vt -4.5 0.0938848
vt 4.204865 0.1448302
vt 0.7953873 0.1448302
vt 4.265 0.2398058
vt 0.7350001 0.2398058
vt 0.03749122 0.08710069
vt -1.124403 0.08710069
vt 0.02495306 0.1839919
vt -1.125437 0.1839919
vt 0.6370428 -0.2181843
vt 0.2766905 -0.2181843
vt 0.6214117 -0.1067274
vt 0.2483213 -0.1067275
vt -0.05200291 0
vt 0.5 0.9630859
vt 0.573437 0
vt 0.7350001 0.3473172
vt -0.4999999 0.9630859
vt 0.05200291 0
vt -0.7350001 0.3473172
vt -0.573437 0
vt 4.5 0.9630859
vt 4.265 0.3473172
vt -4.5 0.9630859
vt -4.265 0.3473172
vt 5.089489 0
vt 4.433957 0
vt -5.089489 0
vt -4.433957 0
vt 4.5 -1.009302
vt 4.265 -0.3362942
vt -4.5 -1.009302
vt -4.265 -0.3362942
vt 0.5 -1.009302
vt 0.7350001 -0.3362942
vt -0.5000001 -1.009302
vt -0.7350001 -0.3362942
vt 0.4798126 0.2031069
vt 4.519813 0.2031069
vt 0.5 0.1050965
vt 4.5 0.1050965
vt -0.6398056 0.3927427
vt -0.2698278 0.3927427
vt -0.6249169 0.278419
vt -0.2418609 0.278419
vt -4.204865 0.06511091
vt -0.7953873 0.06511091
vt -4.265 -0.03309789
vt -0.7350001 -0.03309789
vt 1.529745 1.06528
vt 2.670209 1.06528
vt 1.527813 0.9653057
vt 2.656986 0.9653056
vt -1.910625 -1.947569
vt -1.537579 -1.947569
vt -1.939623 -2.061636
vt -1.553391 -2.061636
vt -2.579979 1.078659
vt -1.399451 1.078659
vt -2.566814 0.978677
vt -1.397974 0.9786771
vt 1.597631 -1.929326
vt 1.961133 -1.929326
vt 1.6142 -2.043285
vt 1.990551 -2.043285
vt -4.519813 0.2077572
vt -0.4798126 0.2077572
vt -4.5 0.1097468
vt -0.5 0.1097468
vt 0.7953873 0.06642074
vt 4.204865 0.06642074
vt 0.7350001 -0.03178805
vt 4.265 -0.03178805
vt -1.124403 0.1183175
vt 0.03749122 0.1183175
vt -1.125437 0.018255
vt 0.02495306 0.01825499
vt 0.2766905 0.3904288
vt 0.6370429 0.3904288
vt 0.2483214 0.2762043
vt 0.6214117 0.2762043
vt -0.03844272 0.1181877
vt 1.082722 0.1181877
vt -0.02585956 0.01813084
vt 1.084204 0.01813084

vn -0.8440491 0.2313919 0.4837758
vn 0.7660727 0.5349224 -0.3563575
vn 0.4748759 0.1897334 0.8593568
vn 0 0.1040614 0.9945709
vn 0 0.1228723 -0.9924225
vn 0.9647056 0.2631412 0.00998173
vn -0.7615734 0.5317457 -0.370476
vn 0.4834553 0.1910047 -0.8542764
vn -0.7575131 0.5304083 0.3805797
vn -0.4946881 0.194573 -0.8470095
vn 0 0.1228723 0.9924225
vn -0.8534937 0.2316389 -0.4667889
vn 0.7622666 0.5337041 0.3662098
vn 0 -1 0
vn 0 1 0
vn 0 -0.1006214 0.9949248
vn 0.7733753 -0.521984 -0.3597545
vn 0 -0.1188272 -0.992915
vn 0.831915 -0.2205256 0.5092012
vn -0.7687449 -0.5188273 -0.3739648
vn 0.8421829 -0.2208626 -0.4918818
vn -0.7646118 -0.5174944 0.3841462
vn 0 -0.1006214 -0.9949248
vn 0 -0.1188272 0.992915
vn -0.8550019 -0.2242966 -0.4676138
vn 0.7694997 -0.520772 0.3696848
vn -0.8455371 -0.2240584 0.4846286

usemtl White
f 3/3/1 4/4/1 2/2/1 1/1/1
f 7/7/2 8/8/2 6/6/2 5/5/2
f 10/11/3 3/12/4 1/10/4 9/9/3
f 8/15/5 12/16/5 11/14/5 6/13/5
f 14/19/6 10/20/3 9/18/3 13/17/6
f 12/23/7 16/24/7 15/22/7 11/21/7
f 18/27/8 14/28/6 13/26/6 17/25/8
f 16/31/9 20/32/9 19/30/9 15/29/9
f 22/35/10 18/36/8 17/34/8 21/33/10
f 20/39/11 24/40/11 23/38/11 19/37/11
f 4/43/12 22/44/10 21/42/10 2/41/12
f 24/47/13 7/48/13 5/46/13 23/45/13
f 27/51/14 28/52/14 26/50/14 25/49/14
f 8/55/15 7/56/15 4/54/15 3/53/15
f 28/52/14 30/58/14 29/57/14 26/50/14
f 12/60/15 8/55/15 3/53/15 10/59/15
f 30/58/14 32/62/14 31/61/14 29/57/14
f 16/64/15 12/60/15 10/59/15 14/63/15
f 32/62/14 34/66/14 33/65/14 31/61/14
f 20/68/15 16/64/15 14/63/15 18/67/15
f 34/66/14 36/70/14 35/69/14 33/65/14
f 24/72/15 20/68/15 18/67/15 22/71/15
f 36/70/14 27/51/14 25/49/14 35/69/14
f 7/56/15 24/72/15 22/71/15 4/54/15
f 26/75/16 29/76/16 9/74/16 1/73/16
f 28/79/17 27/80/17 5/78/17 6/77/17
f 30/83/18 28/84/18 6/82/18 11/81/18
f 29/87/19 31/88/19 13/86/19 9/85/19
f 32/91/20 30/92/20 11/90/20 15/89/20
f 31/95/21 33/96/21 17/94/21 13/93/21
f 34/99/22 32/100/22 15/98/22 19/97/22
f 33/103/23 35/104/23 21/102/23 17/101/23
f 36/107/24 34/108/24 19/106/24 23/105/24
f 35/111/25 25/112/25 2/110/25 21/109/25
f 27/115/26 36/116/26 23/114/26 5/113/26
f 25/119/27 26/120/27 1/118/27 2/117/27

